# xmcd
# 
# Track frame offsets:
#     150
#     13574
#     30417
#     49434
#     66724
#     85143
#     104931
#     121963
#     143583
#     160908
#     180200
#     194257
#     213108
#     229193
#     262216
# 
# Disc length: 3894
# 
# Revision: 10
# Processed by: cddbd v1.5.2PL0 Copyright (c) Steve Scherf et al.
# Submitted via: fre:ac v1.0.31
# 
DISCID=d50f340f
DTITLE=BEN ONCLE SOUL - Ben L'Oncle Soul
DYEAR=2010
DGENRE=Pop/Funk
TTITLE0=Seven Nation Army
TTITLE1=Soulman
TTITLE2=Petite Soeur
TTITLE3=Mon Amour
TTITLE4=Elle Me Dit
TTITLE5=I Don't Wanna Waste
TTITLE6=Come Home
TTITLE7=L'Ombre D'Un Homme
TTITLE8=Ain't Off To The Back (feat. Beat Assailant)
TTITLE9=Lise
TTITLE10=Demain J'Arrête
TTITLE11=Partir
TTITLE12=Lose It
TTITLE13=Back For You
TTITLE14=Data
EXTD=YEAR: 2010
EXTT0=
EXTT1=
EXTT2=
EXTT3=
EXTT4=
EXTT5=
EXTT6=
EXTT7=
EXTT8=
EXTT9=
EXTT10=
EXTT11=
EXTT12=
EXTT13=
EXTT14=
PLAYORDER=
